<?xml version="1.0" encoding="UTF-8" standalone="no"?>
<svg
   width="98"
   height="29"
   viewBox="0 0 98 29"
   fill="none"
   version="1.1"
   id="svg3"
   sodipodi:docname="Logo.svg"
   inkscape:export-filename="Logo-dark.svg"
   inkscape:export-xdpi="96"
   inkscape:export-ydpi="96"
   xmlns:inkscape="http://www.inkscape.org/namespaces/inkscape"
   xmlns:sodipodi="http://sodipodi.sourceforge.net/DTD/sodipodi-0.dtd"
   xmlns="http://www.w3.org/2000/svg"
   xmlns:svg="http://www.w3.org/2000/svg">
  <defs
     id="defs3" />
  <sodipodi:namedview
     id="namedview3"
     pagecolor="#ffffff"
     bordercolor="#000000"
     borderopacity="0.25"
     inkscape:showpageshadow="2"
     inkscape:pageopacity="0.0"
     inkscape:pagecheckerboard="0"
     inkscape:deskcolor="#d1d1d1" />
  <path
     d="m 54.3311,8.436 v 2.034 h -3.348 V 21 h -2.52 V 10.47 h -3.348 V 8.436 Z m 6.8246,2.448 c 0.756,0 1.428,0.168 2.016,0.504 0.588,0.324 1.044,0.81 1.368,1.458 0.336,0.636 0.504,1.404 0.504,2.304 V 21 h -2.52 v -5.508 c 0,-0.792 -0.198,-1.398 -0.594,-1.818 -0.396,-0.432 -0.936,-0.648 -1.62,-0.648 -0.696,0 -1.248,0.216 -1.656,0.648 -0.396,0.42 -0.594,1.026 -0.594,1.818 V 21 h -2.52 V 7.68 h 2.52 v 4.59 c 0.324,-0.432 0.756,-0.768 1.296,-1.008 0.54,-0.252 1.14,-0.378 1.8,-0.378 z m 15.0684,0.144 V 21 h -2.538 v -1.26 c -0.324,0.432 -0.75,0.774 -1.278,1.026 -0.516,0.24 -1.08,0.36 -1.692,0.36 -0.78,0 -1.47,-0.162 -2.07,-0.486 -0.6,-0.336 -1.074,-0.822 -1.422,-1.458 -0.336,-0.648 -0.504,-1.416 -0.504,-2.304 v -5.85 h 2.52 v 5.49 c 0,0.792 0.198,1.404 0.594,1.836 0.396,0.42 0.936,0.63 1.62,0.63 0.696,0 1.242,-0.21 1.638,-0.63 0.396,-0.432 0.594,-1.044 0.594,-1.836 v -5.49 z M 80.6005,7.68 V 21 h -2.52 V 7.68 Z m 4.3798,0 V 21 h -2.52 V 7.68 Z m 6.2877,13.482 c -0.96,0 -1.824,-0.21 -2.592,-0.63 -0.768,-0.432 -1.374,-1.038 -1.818,-1.818 -0.432,-0.78 -0.648,-1.68 -0.648,-2.7 0,-1.02 0.222,-1.92 0.666,-2.7 0.456,-0.78 1.074,-1.38 1.854,-1.8 0.78,-0.432 1.65,-0.648 2.61,-0.648 0.96,0 1.83,0.216 2.61,0.648 0.78,0.42 1.392,1.02 1.836,1.8 0.456,0.78 0.684,1.68 0.684,2.7 0,1.02 -0.234,1.92 -0.702,2.7 -0.456,0.78 -1.08,1.386 -1.872,1.818 -0.78,0.42 -1.656,0.63 -2.628,0.63 z m 0,-2.196 c 0.456,0 0.882,-0.108 1.278,-0.324 0.408,-0.228 0.732,-0.564 0.972,-1.008 0.24,-0.444 0.36,-0.984 0.36,-1.62 0,-0.948 -0.252,-1.674 -0.756,-2.178 -0.492,-0.516 -1.098,-0.774 -1.818,-0.774 -0.72,0 -1.326,0.258 -1.818,0.774 -0.48,0.504 -0.72,1.23 -0.72,2.178 0,0.948 0.234,1.68 0.702,2.196 0.48,0.504 1.08,0.756 1.8,0.756 z"
     fill="#333333"
     id="path1"
     style="fill:#ffffff" />
  <path
     d="M 0,4 C 0,1.79086 1.79086,0 4,0 h 6 c 2.2091,0 4,1.79086 4,4 v 21 c 0,2.2091 -1.7909,4 -4,4 H 4 C 1.79086,29 0,27.2091 0,25 Z"
     fill="#2f80ed"
     id="path2" />
  <path
     d="m 18,4 c 0,-2.20914 1.7909,-4 4,-4 h 6 c 2.2091,0 4,1.79086 4,4 v 10 c 0,2.2091 -1.7909,4 -4,4 h -6 c -2.2091,0 -4,-1.7909 -4,-4 z"
     fill="#2f80ed"
     id="path3" />
  <path
     d="m 20.356673,5.0009591 c 0,-1.7668883 1.187962,-3.1992327 2.65333,-3.1992327 h 3.979994 c 1.465368,0 2.65333,1.4323444 2.65333,3.1992327 V 12.99904 c 0,1.766857 -1.187962,3.199234 -2.65333,3.199234 h -3.979994 c -1.465368,0 -2.65333,-1.432377 -2.65333,-3.199234 z"
     fill="#2F80ED"
     id="path4"
     style="fill:#ffffff;stroke-width:0.728381" />
  <path
     d="m 2.0400565,5.2647828 c 0,-1.9430369 1.2689377,-3.5181779 2.8342534,-3.5181779 H 9.12569 c 1.565288,0 2.834253,1.575141 2.834253,3.5181779 V 23.735217 c 0,1.943003 -1.268965,3.518177 -2.834253,3.518177 H 4.8743099 c -1.5653157,0 -2.8342534,-1.575174 -2.8342534,-3.518177 z"
     fill="#2F80ED"
     id="path5"
     style="fill:#ffffff;stroke-width:0.789439" />
</svg>
